<svg xmlns="http://www.w3.org/2000/svg" width="416.25" height="525" viewBox="0 0 416.25 525"><path d="M61.563 508.686c-2.235-.692-4.063-1.965-4.063-2.83s4.124-4.227 9.165-7.473c5.041-3.245 13.725-9.24 19.297-13.321 11.384-8.34 11.788-9.127 14.141-27.562.933-7.305 1-19.608.218-39.375-1.402-35.406-.573-47.762 3.775-56.275 7.994-15.646 24.473-23.56 52.466-25.197 8.449-.493 13.435-1.294 13.431-2.156-.018-3.64-3.425-12.769-10.074-26.997-6.915-14.799-7.44-16.617-9.943-34.375-4.307-30.574-7.346-39.838-13.806-42.09-3.154-1.1-3.671-1.922-3.678-5.845-.005-2.535-1.147-6.232-2.569-8.315-1.408-2.063-5.628-9.797-9.377-17.188-3.75-7.39-7.171-13.437-7.604-13.437-.433 0-3.283 2.3-6.333 5.112-3.05 2.812-8.634 6.526-12.408 8.254-5.852 2.679-8.278 3.076-16.47 2.697-12.977-.6-21.906-4.974-32.731-16.034-14.898-15.22-22.398-31.657-23.433-51.36-.842-16.012 1.483-24.192 9.233-32.476 13.8-14.756 46.21-20.764 63.025-11.686 8.596 4.642 19.712 15.547 24.389 23.93 2.013 3.608 4.296 6.561 5.073 6.562.777 0 4.695-2.548 8.707-5.664 7.73-6.003 10.596-6.577 11.701-2.345.661 2.53 1.475 2.382 29.103-5.293 27.132-7.536 28.746-8.158 35.517-13.673 6.688-5.447 7.387-5.723 12.202-4.82 2.81.527 7.025 1.006 9.368 1.065l4.26.106.262-13.125c.29-14.563 2.848-24.122 9.702-36.25 5.781-10.229 16.757-20.613 26.764-25.321 7.538-3.547 9.99-4.052 21.627-4.454 24.98-.863 40.066 5.244 53.693 21.735 2.72 3.291 6.712 9.299 8.871 13.35 3.033 5.69 4.396 7.171 5.994 6.51 5.945-2.456 8.018-1.825 9.49 2.893.756 2.42.221 3.116-3.638 4.728l-4.525 1.89.78 7.772c.43 4.275.974 8.406 1.21 9.182.858 2.818-1.844 19.188-4.34 26.3-5.103 14.539-17.343 27.592-31.916 34.039-13.66 6.043-35.552 8.117-47.672 4.518-15.238-4.525-28.154-16.843-38.252-36.48-5.038-9.797-7.195-11.778-7.195-6.606 0 1.47-2.071 3.728-5.313 5.792-8.328 5.304-8.33 5.312-7.544 20.826.61 12.015 1.204 14.943 4.282 21.103 4.707 9.417 4.68 16.536-.113 30.37-4.165 12.02-4.038 12.994 3.554 27.292 4.822 9.082 5.035 16.076 1.162 38.311-1.927 11.07-2.747 21.091-2.812 34.375-.112 22.966.904 25.73 14.989 40.791 11.073 11.841 16.293 19.51 18.166 26.69.72 2.76 2.059 5.605 2.976 6.32.916.716 2.328 3.81 3.136 6.875.868 3.288 3.391 7.624 6.154 10.574 2.576 2.75 10.738 12.194 18.137 20.987 15.028 17.857 27.198 28.883 30.667 27.782 1.665-.529 55.383 16.78 75.922 24.463l2.738 1.025-3.05 11.398c-5.13 19.171-10.794 35.014-12.913 36.12-3.165 1.651-28 2.851-30.105 1.454-1.558-1.033-1.365-1.734 1.25-4.535 1.7-1.822 5.201-4.394 7.78-5.716 5.453-2.797 5.524-3.348 2.39-18.603l-2.184-10.625-18.783-2.708c-51.406-7.41-78.567-20.058-116.9-54.435l-12.246-10.983-15.982 1.12c-15.588 1.094-30.1.357-45.983-2.334-4.125-.699-10.312-1.274-13.75-1.277l-6.25-.006-.172 10.937c-.118 7.529-1.611 17.364-4.79 31.562-2.54 11.344-5.22 25.406-5.956 31.25-1.211 9.634-1.07 11.615 1.513 21.25 6.844 25.521 6.48 27.614-4.639 26.625-4.19-.373-12.176.24-19.081 1.462-14.731 2.609-34.29 3.52-39.687 1.849zM167.656 200c3.539 0 3.338-8.266-.227-9.398-1.414-.448-3.495-2.752-4.623-5.118-3-6.29-.72-17.747 6.508-32.695 4.998-10.339 5.405-11.757 3.205-11.182-3.681.963-3.109.065 2.169-3.397 2.578-1.692 8.724-3.986 13.659-5.098 13.73-3.093 17.615-8.747 16.432-23.907l-.404-5.17-25.397 7.233c-13.968 3.979-25.568 7.43-25.778 7.67-.21.24-1.309 2.26-2.442 4.488-2.551 5.017-6.095 7.336-12.874 8.427-2.882.463-5.88 1.612-6.66 2.554-2.272 2.737-.18 14.694 5.351 30.593 9.685 27.837 16.284 37.189 25.144 35.632 1.976-.348 4.648-.632 5.937-.632z"/></svg>