<?xml version="1.0" encoding="UTF-8" standalone="no"?>
<!-- Created with Inkscape (http://www.inkscape.org/) -->

<svg
   xmlns:dc="http://purl.org/dc/elements/1.1/"
   xmlns:cc="http://creativecommons.org/ns#"
   xmlns:rdf="http://www.w3.org/1999/02/22-rdf-syntax-ns#"
   xmlns:svg="http://www.w3.org/2000/svg"
   xmlns="http://www.w3.org/2000/svg"
   xmlns:sodipodi="http://sodipodi.sourceforge.net/DTD/sodipodi-0.dtd"
   xmlns:inkscape="http://www.inkscape.org/namespaces/inkscape"
   id="svg2"
   version="1.1"
   inkscape:version="0.48+devel r12701"
   width="416.25"
   height="525"
   viewBox="0 0 416.25 525"
   sodipodi:docname="fitness_split_jerk.svg">
  <metadata
     id="metadata8">
    <rdf:RDF>
      <cc:Work
         rdf:about="">
        <dc:format>image/svg+xml</dc:format>
        <dc:type
           rdf:resource="http://purl.org/dc/dcmitype/StillImage" />
        <dc:title></dc:title>
      </cc:Work>
    </rdf:RDF>
  </metadata>
  <defs
     id="defs6" />
  <sodipodi:namedview
     pagecolor="#ffffff"
     bordercolor="#666666"
     borderopacity="1"
     objecttolerance="10"
     gridtolerance="10"
     guidetolerance="10"
     inkscape:pageopacity="0"
     inkscape:pageshadow="2"
     inkscape:window-width="731"
     inkscape:window-height="480"
     id="namedview4"
     showgrid="false"
     inkscape:zoom="0.44952381"
     inkscape:cx="208.125"
     inkscape:cy="262.5"
     inkscape:window-x="0"
     inkscape:window-y="0"
     inkscape:window-maximized="0"
     inkscape:current-layer="svg2" />
  <path
     style="fill:#000000"
     d="M 61.5625,508.68617 C 59.328125,507.99446 57.5,506.72092 57.5,505.8561 c 0,-0.86484 4.124335,-4.22758 9.16519,-7.47275 5.040854,-3.24517 13.724465,-9.23999 19.296914,-13.32183 11.383952,-8.33876 11.788047,-9.12635 14.141266,-27.56152 0.93248,-7.3051 1.00049,-19.60826 0.21764,-39.375 -1.402214,-35.40597 -0.573242,-47.76221 3.77543,-56.27461 7.9933,-15.64664 24.47253,-23.56084 52.46606,-25.19698 8.44855,-0.49379 13.43491,-1.29458 13.43052,-2.1569 -0.0185,-3.63876 -3.42523,-12.76837 -10.07385,-26.99651 -6.91525,-14.79872 -7.44105,-16.61652 -9.94298,-34.375 -4.30747,-30.57377 -7.3464,-39.8383 -13.80637,-42.09026 -3.15375,-1.0994 -3.67098,-1.92129 -3.67806,-5.84453 -0.005,-2.53523 -1.14676,-6.23269 -2.56867,-8.31521 -1.40824,-2.0625 -5.62799,-9.79688 -9.37721,-17.1875 -3.74922,-7.39063 -7.17103,-13.4375 -7.60403,-13.4375 -0.433,0 -3.28291,2.3004 -6.33313,5.11199 -3.05022,2.8116 -8.633914,6.52575 -12.40821,8.25368 -5.851357,2.67884 -8.277646,3.07624 -16.468933,2.69745 C 64.754071,201.71301 55.825425,197.33925 45,186.27932 30.101614,171.05821 22.602389,154.62171 21.566591,134.91892 20.7248,118.90652 23.050121,110.72748 30.799699,102.44255 44.601419,87.687395 77.01009,81.67852 93.824537,90.757146 c 8.596813,4.641682 19.712003,15.547174 24.389223,23.929084 2.01368,3.60867 4.29669,6.5618 5.07334,6.5625 0.77666,7e-4 4.69488,-2.54786 8.70715,-5.66346 7.73044,-6.00281 10.59536,-6.57696 11.70094,-2.34492 0.66079,2.52941 1.47516,2.38129 29.10315,-5.29315 27.13156,-7.53654 28.74574,-8.157965 35.51712,-13.673325 6.68732,-5.446893 7.38644,-5.723046 12.20165,-4.819609 2.80934,0.527093 7.02507,1.006136 9.36828,1.064541 L 234.14576,90.625 234.40675,77.5 c 0.28959,-14.563305 2.84799,-24.121925 9.70245,-36.25 5.78116,-10.229015 16.75652,-20.612756 26.76379,-25.321111 7.53761,-3.5464 9.99081,-4.051576 21.62701,-4.453553 24.98035,-0.862955 40.06586,5.243453 53.69303,21.734198 2.71996,3.291525 6.712,9.299117 8.87121,13.350204 3.03301,5.690523 4.39601,7.171283 5.9933,6.511121 5.94547,-2.457293 8.01881,-1.82557 9.49124,2.891881 0.75546,2.420406 0.22028,3.115775 -3.63899,4.728283 l -4.5247,1.890541 0.78051,7.771719 c 0.42928,4.274445 0.9736,8.406096 1.2096,9.181447 0.85768,2.817771 -1.84374,19.188457 -4.33984,26.29964 -5.10346,14.53932 -17.34304,27.59303 -31.91666,34.03964 -13.66034,6.04261 -35.55151,8.11724 -47.67191,4.51788 -15.23766,-4.5251 -28.15364,-16.84299 -38.25213,-36.48082 C 237.15701,98.114699 235,96.134464 235,101.30604 c 0,1.46943 -2.0713,3.7277 -5.3125,5.79202 -8.32832,5.3043 -8.33121,5.31226 -7.54438,20.82644 0.60935,12.01471 1.20355,14.9429 4.2822,21.10235 4.70707,9.41744 4.68062,16.53606 -0.11287,30.37032 -4.16504,12.02052 -4.03825,12.99422 3.55374,27.29227 4.82222,9.08175 5.03441,16.07566 1.16228,38.31056 -1.92778,11.06991 -2.74763,21.0911 -2.81226,34.375 -0.11175,22.96596 0.90414,25.73064 14.98848,40.79104 11.07377,11.84121 16.2932,19.50958 18.1662,26.68973 0.72011,2.76058 2.05915,5.60473 2.97563,6.32033 0.91649,0.71561 2.32809,3.80936 3.13689,6.875 0.86754,3.28825 3.391,7.62421 6.15386,10.5739 2.57582,2.75 10.73738,12.19397 18.13679,20.98662 15.0282,17.85782 27.19823,28.88303 30.66688,27.78213 1.66493,-0.52844 55.38312,16.7806 75.92223,24.4636 l 2.73819,1.02426 -3.0503,11.39797 c -5.13074,19.17189 -10.79425,35.01399 -12.91275,36.11981 -3.16506,1.6521 -27.99937,2.85198 -30.10556,1.45457 -1.55764,-1.03346 -1.36453,-1.73402 1.25,-4.53477 1.70074,-1.82187 5.20162,-4.39418 7.77975,-5.71624 5.45369,-2.79666 5.52452,-3.34811 2.38985,-18.60295 l -2.1833,-10.625 -18.78299,-2.70766 c -51.40655,-7.41052 -78.56709,-20.05809 -116.89932,-54.43535 l -12.24647,-10.98292 -15.98263,1.12082 c -15.58794,1.09312 -30.09915,0.35634 -45.98264,-2.33473 -4.125,-0.69887 -10.3125,-1.27375 -13.75,-1.2775 l -6.25,-0.006 -0.17191,10.93708 c -0.11838,7.52879 -1.61125,17.36439 -4.7907,31.56207 -2.54033,11.34375 -5.22009,25.40625 -5.95503,31.25 -1.21167,9.6344 -1.07063,11.6156 1.51283,21.25 6.8436,25.52164 6.47896,27.61437 -4.63913,26.62515 -4.18995,-0.37278 -12.17637,0.23909 -19.08106,1.4619 -14.731421,2.60893 -34.28961,3.52018 -39.6875,1.84913 z M 167.65625,200 c 3.53826,0 3.33824,-8.26589 -0.22741,-9.39759 -1.41414,-0.44882 -3.49448,-2.75227 -4.62298,-5.11875 -2.9995,-6.29001 -0.71918,-17.74618 6.50774,-32.69457 4.99854,-10.33913 5.40501,-11.75709 3.20542,-11.18188 -3.68147,0.96273 -3.10858,0.0651 2.16848,-3.3976 2.57812,-1.69172 8.7247,-3.98547 13.65905,-5.09723 13.72952,-3.09342 17.61536,-8.7471 16.43201,-23.90768 l -0.40356,-5.17031 -25.39686,7.23384 c -13.96828,3.97861 -25.56862,7.43025 -25.77854,7.6703 -0.20991,0.24006 -1.30865,2.2593 -2.44164,4.4872 -2.55144,5.01709 -6.09498,7.33667 -12.8735,8.42686 -2.8823,0.46356 -5.87961,1.61287 -6.6607,2.55403 -2.27163,2.73715 -0.18,14.69477 5.35144,30.59338 9.68509,27.83714 16.28394,37.18855 25.14355,35.63156 C 163.69531,200.2842 166.36719,200 167.65625,200 Z"
     id="path4064"
     inkscape:connector-curvature="0" />
</svg>
